<?xml version="1.0" encoding="utf-8"?>
<!-- Generator: Adobe Illustrator 26.0.2, SVG Export Plug-In . SVG Version: 6.00 Build 0)  -->
<svg version="1.1" id="Layer_1" xmlns="http://www.w3.org/2000/svg" xmlns:xlink="http://www.w3.org/1999/xlink" x="0px" y="0px"
	 viewBox="0 0 1939 290" style="enable-background:new 0 0 1939 290;" xml:space="preserve">
<style type="text/css">
	.st0{fill:#091B49;}
	.st1{fill:#85E6C4;}
	.st2{fill:#6D44E5;}
	.st3{fill:#517CE3;}
</style>
<g>
	<path class="st0" d="M425,280.5v-253c0-8.3,6.8-15.1,15.1-15.1h172.6L612.5,58H483.3v65.1h112.2v44.7H482.9v66.5l131.6,0.2v46H425z
		"/>
	<path class="st0" d="M692.4,284.2c-18.4,0-33.7-5.1-46-15.2c-12.3-10.1-18.5-24.6-18.5-43.4c0-21,7.8-36.9,23.3-47.8
		c15.7-11,40.4-16.7,74.3-17.1l23.8-0.4v-11.5c0-8.8-2.6-15.5-7.8-20.2c-5.1-4.8-12.9-7.2-23.7-7c-7.9,0.1-15.4,2-22.6,5.6
		c-7,3.6-11.8,9.8-14.4,18.7H636c1-20.8,9.3-36.1,25-46c15.7-9.9,35.4-14.8,59.3-14.8c29.3,0,50.1,5.4,62.3,16.3
		c12.3,10.8,18.5,25.5,18.5,44.3v134.8h-49.5v-33c-6.5,13.8-14.7,23.4-24.6,28.7C717.3,281.5,705.7,284.2,692.4,284.2z M710.5,248.6
		c6.5,0,12.8-1.5,18.7-4.4c5.9-3.1,10.7-7,14.4-11.9c3.8-4.9,5.7-10.2,5.7-15.8v-28.4l-19.4,0.4c-9,0.1-17.4,1.2-25.1,3.2
		c-7.8,2-14,5.3-18.9,10c-4.7,4.6-7,10.8-7,18.5c0,8.9,3,15.9,9.1,20.9C694.1,246.1,701.7,248.6,710.5,248.6z"/>
	<path class="st0" d="M903.1,284.2c-13.4,0-26.3-2.2-38.5-6.5c-12.2-4.4-22.6-11.4-31.2-20.8c-8.6-9.4-14-21.7-16.3-36.9h46.8
		c2.3,10.3,7.5,17.4,15.5,21.3c8.1,3.8,15.9,5.7,23.3,5.7c10.4,0,18.7-1.6,25-4.8c6.4-3.3,9.6-8.4,9.6-15.2c0-5.2-1.9-9.3-5.7-12.4
		c-3.7-3.1-9.9-5.4-18.5-7l-33.6-7c-16.9-3.6-30.5-9.6-40.9-18.2c-10.2-8.7-15.4-20.9-15.5-36.7c-0.1-17.3,6.7-31.7,20.3-43.2
		c13.8-11.6,33.8-17.4,59.9-17.4c23.5,0,42.3,5.3,56.4,15.8c14.2,10.4,21.4,25,21.6,43.7h-45.1c-1.4-7.4-5.1-13.1-11.1-17.1
		c-5.9-4.1-13.4-6.1-22.4-6.1c-9.4,0-17.1,1.7-23.1,5c-6,3.3-9.1,8.4-9.1,15.2c0,5.1,2.5,9.1,7.4,12c4.9,2.8,12.6,5.3,22.9,7.4
		l31.1,7c14.2,3.5,25,8.5,32.4,15.2c7.5,6.7,12.6,13.7,15.2,21.1c2.7,7.3,4.1,13.8,4.1,19.6c0,19.2-7.5,34-22.4,44.5
		C946.2,279,926.9,284.2,903.1,284.2z"/>
	<path class="st0" d="M1051,197c-0.1,14.7,3.4,26.4,10.5,35s17.2,13,30.1,13c9.2,0,17.3-2,24.2-5.9c7-4,11.9-10.4,14.6-19.5h48.6
		c-2.1,13.6-7.5,25.2-16.3,34.9c-8.6,9.6-19.1,17-31.4,22.1c-12.3,5.1-25.1,7.6-38.4,7.6c-19,0-35.6-4-49.9-11.9
		c-14.3-8-25.5-19.3-33.5-33.9c-8-14.6-12-31.8-12-51.5c0-19.2,3.6-36.4,10.9-51.7c7.3-15.4,17.8-27.6,31.6-36.5
		c13.9-9,30.6-13.5,50.1-13.5c19.5,0,35.8,4.1,49,12.4c13.3,8.2,23.3,19.6,29.9,34.3c6.8,14.6,10.2,31.5,10.2,50.6V197H1051z
		 M1050.8,164.8h78c0-11.6-3.2-21.5-9.6-29.7c-6.4-8.2-16.1-12.2-29-12.2c-8.4,0-15.5,2-21.4,6.1c-5.8,4.1-10.2,9.3-13.3,15.8
		C1052.3,151.1,1050.8,157.7,1050.8,164.8z"/>
	<path class="st0" d="M1304.3,284.2c-12.6,0-23-2.1-31.2-6.3c-8.1-4.3-14.6-9.8-19.4-16.3c-4.7-6.6-8.2-13.3-10.5-20.4v39.3h-45.3V5
		h43.6c5.8,0,10.6,4.7,10.6,10.6v99.2c4.6-8.2,11.8-15.1,21.8-20.9c10.1-5.8,22-8.7,35.7-8.7c23.7,0,42.3,8.6,55.8,25.8
		c13.6,17.2,20.3,41.4,20.3,72.7c0,30.4-6.9,54.8-20.7,73.2C1351.2,275,1330.9,284.2,1304.3,284.2z M1292.5,245.2
		c11.6,0,21.2-4.8,28.8-14.3c7.8-9.6,11.7-25.7,11.7-48.2c0-19.9-3.7-34.6-11.1-44.1c-7.3-9.5-17.2-14.3-29.8-14.3
		c-26.5,0-39.9,19.5-40.1,58.4c0,22.6,3.3,38.7,10,48.2C1268.6,240.5,1278.8,245.2,1292.5,245.2z"/>
	<path class="st0" d="M1474.8,284.2c-11.7,0-23.2-2.4-34.4-7.2c-11.1-4.8-20.3-11.9-27.5-21.1c-7.3-9.4-10.9-20.9-10.9-34.5V88.8h54
		v125.7c0,8.9,2.9,16.2,8.7,21.9c5.8,5.7,14.3,8.5,25.5,8.5c10.5,0,18.9-2.7,25.2-8.2c6.3-5.6,9.4-13.3,9.4-23.2V88.8h53.4v191.7
		h-47v-38c-2.2,11.2-6.4,19.9-12.6,26c-6,5.9-13,10-20.9,12.2C1490,283,1482.3,284.2,1474.8,284.2z"/>
	<path class="st0" d="M1595.9,280.5v-25.1c0-3.3,1.1-6.5,3.1-9.1l91.2-119.6h-89.5V88.8h154.9V119l-94.5,123.6h95v37.8H1595.9z"/>
	<path class="st0" d="M1769.2,280.5v-25.1c0-3.3,1.1-6.5,3.1-9.1l91.2-119.6H1774V88.8h154.9V119l-94.5,123.6h95v37.8H1769.2z"/>
	<path class="st1" d="M44,124.1h225.9l-25.4,46.2c-5.3,9.7-15.5,15.7-26.5,15.7h-208L44,124.1z"/>
	<path class="st2" d="M136.1,216.1H362l-25.4,46.2c-5.3,9.7-15.5,15.7-26.5,15.7h-208L136.1,216.1z"/>
	<path class="st3" d="M136.1,32H362l-25.4,46.2c-5.3,9.7-15.5,15.7-26.5,15.7h-208L136.1,32z"/>
</g>
</svg>
