<svg xmlns="http://www.w3.org/2000/svg" viewBox="0 0 2234.47 367.5"><defs><style>.cls-1{fill:#007bb9;stroke:#007bb9;stroke-miterlimit:10;stroke-width:20px;}.cls-2{fill:red;}</style></defs><title>cc avenue</title><g id="Layer_2" data-name="Layer 2"><g id="Layer_1-2" data-name="Layer 1"><path class="cls-1" d="M265.5,341.5c-16,8-48,16-89,16C81.5,357.5,10,297.5,10,187,10,81.5,81.5,10,186,10c42,0,68.5,9,80,15L255.5,60.5c-16.5-8-40-14-68-14C108.5,46.5,56,97,56,185.5,56,268,103.5,321,185.5,321c26.5,0,53.5-5.5,71-14Z"/><path class="cls-1" d="M545,341.5c-16,8-48,16-89,16-95,0-166.5-60-166.5-170.5,0-105.5,71.5-177,176-177,42,0,68.5,9,80,15L535,60.5c-16.5-8-40-14-68-14-79,0-131.5,50.5-131.5,139C335.5,268,383,321,465,321c26.5,0,53.5-5.5,71-14Z"/><path d="M760,246.5l-35,106H680l114.5-337H847l115,337h-46.5l-36-106L820.14,54.06h-1Z"/><path d="M1016.49,110.5l47.5,136c8,22,14.5,42,19.5,62h1.5c5.5-20,12.5-40,20.5-62l47-136h46l-95,242h-42l-92-242Z"/><path d="M1259.48,239.5c1,59.5,39,84,83,84,31.5,0,50.5-5.5,67-12.5l7.5,31.5c-15.5,7-42,15-80.5,15-74.5,0-119-49-119-122S1260.48,105,1331,105c79,0,100,69.5,100,114a166,166,0,0,1-1.5,20.5Zm129-31.5c.5-28-11.5-71.5-61-71.5-44.5,0-64,41-67.5,71.5Z"/><path d="M1485.48,176c0-25-.5-45.5-2-65.5h39l2.5,40h1c12-23,40-45.5,80-45.5,33.5,0,85.5,20,85.5,103V352.5h-44V213c0-39-14.5-71.5-56-71.5-29,0-51.5,20.5-59,45-2,5.5-3,13-3,20.5V352.5h-44Z"/><path d="M1965.47,286.5c0,25,.5,47,2,66h-39L1926,313h-1c-11.5,19.5-37,45-80,45-38,0-83.5-21-83.5-106V110.5h44v134c0,46,14,77,54,77,29.5,0,50-20.5,58-40a64.35,64.35,0,0,0,4-22.5V110.5h44Z"/><path d="M2063,239.5c1,59.5,39,84,83,84,31.5,0,50.5-5.5,67-12.5l7.5,31.5c-15.5,7-42,15-80.5,15-74.5,0-119-49-119-122S2064,105,2134.47,105c79,0,100,69.5,100,114a166,166,0,0,1-1.5,20.5ZM2192,208c.5-28-11.5-71.5-61-71.5-44.5,0-64,41-67.5,71.5Z"/><polygon class="cls-2" points="860.14 272.06 590.14 208.06 839.14 208.06 860.14 272.06"/></g></g></svg>