<?xml version="1.0" encoding="utf-8"?>
<!-- Generator: Adobe Illustrator 18.1.1, SVG Export Plug-In . SVG Version: 6.00 Build 0)  -->
<svg version="1.1" id="Layer_1" xmlns="http://www.w3.org/2000/svg" xmlns:xlink="http://www.w3.org/1999/xlink" x="0px" y="0px"
	 viewBox="11 51 21.1 20" enable-background="new 11 51 21.1 20" xml:space="preserve">
<path fill="#F7B500" d="M30.1,53.1c0-0.8-1-1.3-1.6-0.8l-10,8.3c-0.2,0.2-0.4,0.5-0.4,0.8V69c0,0.6,0.4,1,1,1h10c0.6,0,1-0.4,1-1
	V53.1z"/>
<path fill="#257CFF" d="M13.1,53.1c0-0.8,1-1.3,1.6-0.8l10,8.3c0.2,0.2,0.4,0.5,0.4,0.8V69c0,0.6-0.4,1-1,1h-10c-0.6,0-1-0.4-1-1
	V53.1z"/>
<defs>
	<filter id="Adobe_OpacityMaskFilter" filterUnits="userSpaceOnUse" x="18.1" y="52.1" width="12" height="17.9">
		<feColorMatrix  type="matrix" values="1 0 0 0 0  0 1 0 0 0  0 0 1 0 0  0 0 0 1 0"/>
	</filter>
</defs>
<mask maskUnits="userSpaceOnUse" x="18.1" y="52.1" width="12" height="17.9" id="mask0">
	<path fill="#2D38D7" filter="url(#Adobe_OpacityMaskFilter)" d="M13.1,53.1c0-0.8,1-1.3,1.6-0.8l10,8.3c0.2,0.2,0.4,0.5,0.4,0.8V69
		c0,0.6-0.4,1-1,1h-10c-0.6,0-1-0.4-1-1V53.1z"/>
</mask>
<g mask="url(#mask0)">
	<path fill="#FFFFFF" d="M30.1,53.1c0-0.8-1-1.3-1.6-0.8l-10,8.3c-0.2,0.2-0.4,0.5-0.4,0.8V69c0,0.6,0.4,1,1,1h10c0.6,0,1-0.4,1-1
		V53.1z"/>
</g>
</svg>
