<?xml version="1.0" encoding="utf-8"?>
<!-- Generator: Adobe Illustrator 18.1.1, SVG Export Plug-In . SVG Version: 6.00 Build 0)  -->
<svg version="1.1" id="Layer_1" xmlns="http://www.w3.org/2000/svg" xmlns:xlink="http://www.w3.org/1999/xlink" x="0px" y="0px"
	 viewBox="0 0 42 48" enable-background="new 0 0 42 48" xml:space="preserve">
<g>
	<defs>
		<rect id="SVGID_1_" x="11.2" y="16.3" width="18.2" height="18.2"/>
	</defs>
	<clipPath id="SVGID_2_">
		<use xlink:href="#SVGID_1_"  overflow="visible"/>
	</clipPath>
	<g clip-path="url(#SVGID_2_)">
		<path fill="#BFC4C9" d="M29,23.1c-0.3-1.3-0.9-2.2-2.2-2.2h-1.6v1.9c0,1.5-1.3,2.7-2.7,2.7h-4.3c-1.2,0-2.2,1-2.2,2.2v4.1
			c0,1.2,1,1.9,2.2,2.2c1.4,0.4,2.7,0.5,4.3,0c1.1-0.3,2.2-1,2.2-2.2v-1.6h-4.3v-0.6h6.5c1.3,0,1.7-0.9,2.2-2.2
			C29.4,26.1,29.4,24.8,29,23.1z M22.8,31.3c0.4,0,0.8,0.4,0.8,0.8c0,0.5-0.4,0.8-0.8,0.8c-0.4,0-0.8-0.4-0.8-0.8
			C22,31.7,22.3,31.3,22.8,31.3z M18,25h4.3c1.2,0,2.2-1,2.2-2.2v-4.1c0-1.2-1-2.1-2.2-2.3c-1.4-0.2-3-0.2-4.3,0
			c-1.8,0.3-2.2,1-2.2,2.3v1.6h4.3v0.6h-5.9c-1.3,0-2.4,0.8-2.7,2.2c-0.4,1.6-0.4,2.7,0,4.4c0.3,1.3,1,2.2,2.3,2.2h1.5v-2
			C15.3,26.3,16.5,25,18,25z M17.7,19.3c-0.4,0-0.8-0.4-0.8-0.8c0-0.5,0.4-0.8,0.8-0.8c0.4,0,0.8,0.4,0.8,0.8
			C18.5,18.9,18.2,19.3,17.7,19.3z"/>
	</g>
</g>
</svg>
