<?xml version="1.0" encoding="utf-8"?>
<!-- Generator: Adobe Illustrator 18.1.1, SVG Export Plug-In . SVG Version: 6.00 Build 0)  -->
<svg version="1.1" id="Layer_1" xmlns="http://www.w3.org/2000/svg" xmlns:xlink="http://www.w3.org/1999/xlink" x="0px" y="0px"
	 viewBox="0 0 42 48" enable-background="new 0 0 42 48" xml:space="preserve">
<g>
	<defs>
		<rect id="SVGID_1_" x="11" y="15.9" width="21.1" height="18.5"/>
	</defs>
	<clipPath id="SVGID_2_">
		<use xlink:href="#SVGID_1_"  overflow="visible"/>
	</clipPath>
	<g clip-path="url(#SVGID_2_)">
		<path fill="#BFC4C9" d="M28.2,21.9c-0.2-0.1-0.4-0.1-0.7-0.2c0-0.2,0.1-0.3,0.1-0.5c0.5-2.5,0.2-4.4-1-5.1c-1.1-0.6-2.9,0-4.6,1.6
			c-0.2,0.2-0.4,0.3-0.5,0.5c-0.1-0.1-0.2-0.2-0.3-0.3c-1.9-1.7-3.8-2.4-4.9-1.7c-1.1,0.6-1.4,2.5-0.9,4.8c0,0.2,0.1,0.5,0.2,0.7
			c-0.3,0.1-0.5,0.2-0.8,0.2c-2.2,0.8-3.8,2-3.8,3.2c0,1.3,1.7,2.6,4,3.4c0.2,0.1,0.4,0.1,0.6,0.2c-0.1,0.2-0.1,0.5-0.2,0.7
			c-0.4,2.3-0.1,4.1,1,4.7c1.1,0.6,3,0,4.8-1.6c0.1-0.1,0.3-0.3,0.4-0.4c0.2,0.2,0.4,0.3,0.6,0.5c1.8,1.5,3.5,2.1,4.6,1.5
			c1.1-0.6,1.5-2.6,1-5c0-0.2-0.1-0.4-0.1-0.6c0.1,0,0.3-0.1,0.4-0.1c2.4-0.8,4.1-2.1,4.1-3.4C32,23.8,30.4,22.6,28.2,21.9z
			 M22.6,18.4c1.5-1.3,3-1.9,3.6-1.5c0.7,0.4,1,2,0.5,4.1c0,0.1-0.1,0.3-0.1,0.4c-0.9-0.2-1.8-0.4-2.8-0.4c-0.5-0.8-1.1-1.5-1.8-2.2
			C22.3,18.6,22.4,18.5,22.6,18.4z M17.8,27.2c0.2,0.4,0.4,0.7,0.7,1.1c-0.6-0.1-1.3-0.2-1.9-0.3c0.2-0.6,0.4-1.2,0.7-1.8
			C17.4,26.5,17.6,26.9,17.8,27.2z M16.6,22.3c0.6-0.1,1.2-0.2,1.9-0.3c-0.2,0.3-0.4,0.7-0.6,1c-0.2,0.4-0.4,0.7-0.6,1.1
			C17,23.5,16.8,22.8,16.6,22.3z M17.7,25.1c0.3-0.6,0.6-1.1,0.9-1.7c0.3-0.5,0.7-1.1,1-1.6c0.6,0,1.2-0.1,1.9-0.1s1.3,0,1.9,0.1
			c0.4,0.5,0.7,1.1,1,1.6c0.3,0.5,0.6,1.1,0.9,1.7c-0.3,0.6-0.6,1.1-0.9,1.7c-0.3,0.5-0.6,1.1-1,1.6c-0.6,0-1.3,0.1-1.9,0.1
			s-1.3,0-1.9-0.1c-0.4-0.5-0.7-1.1-1-1.6C18.3,26.2,18,25.7,17.7,25.1z M25.2,27.2c0.2-0.4,0.4-0.7,0.6-1.1
			c0.3,0.6,0.5,1.2,0.7,1.8c-0.6,0.1-1.3,0.3-1.9,0.3C24.7,27.9,25,27.6,25.2,27.2z M25.8,24.1c-0.2-0.4-0.4-0.7-0.6-1.1
			c-0.2-0.4-0.4-0.7-0.6-1c0.7,0.1,1.3,0.2,1.9,0.3C26.2,22.9,26,23.5,25.8,24.1z M21.5,19.4c0.4,0.5,0.8,1,1.2,1.5
			c-0.8,0-1.6,0-2.5,0C20.7,20.4,21.1,19.9,21.5,19.4z M16.7,16.9c0.7-0.4,2.2,0.2,3.8,1.6c0.1,0.1,0.2,0.2,0.3,0.3
			c-0.6,0.7-1.2,1.4-1.8,2.2c-0.9,0.1-1.9,0.2-2.8,0.4c-0.1-0.2-0.1-0.4-0.1-0.6C15.8,18.8,16.1,17.3,16.7,16.9z M15.7,27.8
			c-0.2,0-0.3-0.1-0.5-0.2c-0.9-0.3-1.9-0.7-2.6-1.3c-0.4-0.3-0.7-0.7-0.8-1.2c0-0.8,1.3-1.7,3.2-2.4c0.2-0.1,0.5-0.2,0.7-0.2
			c0.3,0.9,0.6,1.8,1,2.6C16.3,26,16,26.9,15.7,27.8z M20.5,31.8c-0.7,0.6-1.5,1.1-2.3,1.5c-0.5,0.2-1,0.2-1.5,0.1
			c-0.7-0.4-0.9-1.8-0.6-3.8c0-0.2,0.1-0.5,0.2-0.7c0.9,0.2,1.9,0.3,2.8,0.4c0.5,0.8,1.1,1.5,1.8,2.2C20.8,31.6,20.7,31.7,20.5,31.8
			z M21.5,30.8c-0.4-0.5-0.8-1-1.2-1.5c0.4,0,0.8,0,1.2,0c0.4,0,0.8,0,1.3,0C22.4,29.8,22,30.3,21.5,30.8z M26.9,32
			c0,0.5-0.3,1-0.7,1.3c-0.7,0.4-2.1-0.1-3.6-1.4c-0.2-0.1-0.3-0.3-0.5-0.5c0.6-0.7,1.2-1.4,1.7-2.2c0.9-0.1,1.9-0.2,2.8-0.4
			c0,0.2,0.1,0.3,0.1,0.5C27,30.2,27,31.1,26.9,32z M27.7,27.6c-0.1,0-0.2,0.1-0.4,0.1c-0.3-0.9-0.6-1.8-1.1-2.6
			c0.4-0.8,0.7-1.7,1-2.6c0.2,0.1,0.4,0.1,0.6,0.2c1.9,0.7,3.3,1.6,3.3,2.4C31.2,25.9,29.7,26.9,27.7,27.6z M21.5,27
			c1,0,1.9-0.8,1.9-1.9c0-1-0.8-1.9-1.9-1.9s-1.9,0.8-1.9,1.9C19.6,26.1,20.5,27,21.5,27z"/>
	</g>
</g>
</svg>
