<?xml version="1.0" encoding="utf-8"?>
<!-- Generator: Adobe Illustrator 18.1.1, SVG Export Plug-In . SVG Version: 6.00 Build 0)  -->
<svg version="1.1" id="Layer_1" xmlns="http://www.w3.org/2000/svg" xmlns:xlink="http://www.w3.org/1999/xlink" x="0px" y="0px"
	 viewBox="0 0 42 48" enable-background="new 0 0 42 48" xml:space="preserve">
<g>
	<defs>
		<rect id="SVGID_1_" x="11.3" y="16.8" width="18.2" height="18.2"/>
	</defs>
	<clipPath id="SVGID_2_">
		<use xlink:href="#SVGID_1_"  overflow="visible"/>
	</clipPath>
	<g clip-path="url(#SVGID_2_)">
		<path fill="#BFC4C9" d="M11.3,16.8V35h18.2V16.8H11.3z M21.2,31c0,1.8-1,2.6-2.6,2.6c-1.4,0-2.2-0.7-2.6-1.6l1.4-0.8
			c0.3,0.5,0.5,0.9,1.1,0.9c0.6,0,0.9-0.2,0.9-1.1v-5.8h1.7V31z M25.3,33.5c-1.6,0-2.6-0.8-3.1-1.7l1.4-0.8c0.4,0.6,0.8,1,1.7,1
			c0.7,0,1.2-0.4,1.2-0.8c0-0.6-0.5-0.8-1.2-1.1l-0.4-0.2c-1.2-0.5-2-1.2-2-2.6c0-1.3,1-2.3,2.5-2.3c1.1,0,1.9,0.4,2.4,1.4l-1.3,0.9
			c-0.3-0.5-0.6-0.7-1.1-0.7c-0.5,0-0.8,0.3-0.8,0.7c0,0.5,0.3,0.7,1.1,1l0.4,0.2c1.5,0.6,2.3,1.3,2.3,2.7
			C28.1,32.7,26.9,33.5,25.3,33.5z"/>
	</g>
</g>
</svg>
