<?xml version="1.0" encoding="utf-8"?>
<!-- Generator: Adobe Illustrator 18.1.1, SVG Export Plug-In . SVG Version: 6.00 Build 0)  -->
<svg version="1.1" id="Layer_1" xmlns="http://www.w3.org/2000/svg" xmlns:xlink="http://www.w3.org/1999/xlink" x="0px" y="0px"
	 viewBox="0 0 42 48" enable-background="new 0 0 42 48" xml:space="preserve">
<g>
	<defs>
		<rect id="SVGID_1_" x="11" y="16.3" width="16.6" height="18.6"/>
	</defs>
	<clipPath id="SVGID_2_">
		<use xlink:href="#SVGID_1_"  overflow="visible"/>
	</clipPath>
	<g clip-path="url(#SVGID_2_)">
		<path fill="#BFC4C9" d="M19.3,34.9c-0.2,0-0.5-0.1-0.7-0.2l-2.3-1.3c-0.3-0.2-0.2-0.3-0.1-0.3c0.5-0.2,0.5-0.2,1-0.5
			c0.1,0,0.1,0,0.2,0l1.8,1c0.1,0,0.2,0,0.2,0l6.8-3.9c0.1,0,0.1-0.1,0.1-0.2v-7.9c0-0.1,0-0.1-0.1-0.2l-6.8-3.9c-0.1,0-0.1,0-0.2,0
			l-6.8,3.9c-0.1,0-0.1,0.1-0.1,0.2v7.9c0,0.1,0,0.1,0.1,0.2l1.9,1.1c1,0.5,1.6-0.1,1.6-0.7v-7.8c0-0.1,0.1-0.2,0.2-0.2h0.9
			c0.1,0,0.2,0.1,0.2,0.2v7.8c0,1.4-0.7,2.1-2,2.1c-0.4,0-0.7,0-1.6-0.4l-1.8-1C11.3,30.5,11,30,11,29.5v-7.9c0-0.5,0.3-1,0.7-1.2
			l6.8-3.9c0.4-0.2,1-0.2,1.4,0l6.8,3.9c0.4,0.3,0.7,0.7,0.7,1.2v7.9c0,0.5-0.3,1-0.7,1.2L20,34.7C19.8,34.8,19.5,34.9,19.3,34.9z
			 M24.8,27.1c0-1.5-1-1.9-3.1-2.1c-2.1-0.3-2.3-0.4-2.3-0.9c0-0.4,0.2-1,1.8-1c1.4,0,1.9,0.3,2.1,1.2c0,0.1,0.1,0.2,0.2,0.2h0.9
			c0.1,0,0.1,0,0.1-0.1c0,0,0.1-0.1,0.1-0.2c-0.1-1.6-1.2-2.4-3.4-2.4c-1.9,0-3.1,0.8-3.1,2.2c0,1.5,1.2,1.9,3,2.1
			c2.2,0.2,2.4,0.5,2.4,1c0,0.8-0.6,1.1-2.1,1.1c-1.8,0-2.2-0.5-2.3-1.4c0-0.1-0.1-0.2-0.2-0.2h-0.9c-0.1,0-0.2,0.1-0.2,0.2
			c0,1.1,0.6,2.5,3.6,2.5C23.5,29.5,24.8,28.6,24.8,27.1z"/>
	</g>
</g>
</svg>
