<?xml version="1.0" encoding="utf-8"?>
<!-- Generator: Adobe Illustrator 24.3.0, SVG Export Plug-In . SVG Version: 6.00 Build 0)  -->
<svg version="1.0" id="Layer_1" xmlns="http://www.w3.org/2000/svg" xmlns:xlink="http://www.w3.org/1999/xlink" x="0px" y="0px"
	 viewBox="0 0 1080 1080" style="enable-background:new 0 0 1080 1080;" xml:space="preserve">
<style type="text/css">
	.st0{fill:#2F2F7F;}
	.st1{clip-path:url(#SVGID_2_);fill:#FFFFFF;}
	.st2{fill:#F5B217;}
	.st3{fill:#E95A29;}
</style>
<g>
	<circle class="st0" cx="540" cy="528" r="425.26"/>
	<g>
		<defs>
			<circle id="SVGID_1_" cx="540" cy="528" r="425.26"/>
		</defs>
		<clipPath id="SVGID_2_">
			<use xlink:href="#SVGID_1_"  style="overflow:visible;"/>
		</clipPath>
		<path class="st1" d="M674.27,1327.42c0,25.38-58.49,45.96-130.65,45.96c-72.15,0-130.64-20.58-130.64-45.96l-0.01-643.14
			c0-24.68,58.49-44.69,130.65-44.69c72.15,0,130.64,20.01,130.64,44.69L674.27,1327.42z"/>
	</g>
	<path class="st2" d="M674.26,684.28c0,24.68-58.49,44.69-130.65,44.69c-72.15,0-130.64-20.01-130.64-44.7
		c0-24.68,58.49-44.69,130.65-44.69C615.77,639.59,674.26,659.6,674.26,684.28z"/>
	<path class="st3" d="M669.79,366.28c0.01,72.16-56.5,130.65-126.21,130.65c-69.71-0.01-126.22-58.5-126.23-130.66
		s56.5-130.65,126.21-130.64C613.28,235.63,669.79,294.13,669.79,366.28z"/>
</g>
</svg>
