<?xml version="1.0" encoding="utf-8"?>
<!-- Generator: Adobe Illustrator 24.3.0, SVG Export Plug-In . SVG Version: 6.00 Build 0)  -->
<svg version="1.0" id="Layer_1" xmlns="http://www.w3.org/2000/svg" xmlns:xlink="http://www.w3.org/1999/xlink" x="0px" y="0px"
	 viewBox="0 0 324.23 74.19" style="enable-background:new 0 0 324.23 74.19;" xml:space="preserve">
<style type="text/css">
	.st0{fill:#FFFFFF;}
	.st1{fill:#FCB813;}
	.st2{fill:#F05A28;}
</style>
<g>
	<path class="st0" d="M84.89,46.23c0,0-0.3-1.23-5.22-1.96c-2.7-0.4-5.02-0.77-6.92-1.31c-1.9-0.54-3.54-1.54-4.92-3.01
		c-1.38-1.46-2.07-3.51-2.07-6.14c0-2.17,0.65-4.1,1.94-5.79c1.29-1.69,3.18-3.03,5.67-4.01c2.48-0.98,5.46-1.47,8.92-1.47
		c2.46,0,4.9,0.25,7.33,0.75c2.42,0.5,4.45,1.21,6.07,2.13l-3.57,8.08c-3.52-1.69-6.04-2.09-9.48-2.22
		c-1.37-0.05-2.77,0.12-3.61,0.35c-0.66,0.18-1.24,0.6-1.54,1.22c-0.5,1.02,0.02,2.59,5.61,3.15c2.81,0.28,5.11,0.9,6.95,1.44
		c1.84,0.54,3.43,1.53,4.79,2.97c1.36,1.44,2.04,3.45,2.04,6.04c0,2.13-0.65,4.04-1.94,5.73c-1.29,1.69-3.2,3.02-5.73,3.98
		c-2.53,0.96-5.56,1.44-9.11,1.44c-2.84,0-5.63-0.32-8.39-0.97c-2.76-0.65-4.97-1.49-6.64-2.54l3.57-8.14
		c1.95,0.8,3.38,1.15,5.51,1.71c2.13,0.56,4.78,0.65,6.87,0.68C85.62,48.41,84.89,46.23,84.89,46.23"/>
	<path class="st0" d="M121.05,55.68c-0.96,0.6-2.14,1.07-3.53,1.39c-1.39,0.32-2.86,0.48-4.43,0.48c-4.26,0-7.52-1.04-9.79-3.13
		c-2.27-2.09-3.41-5.2-3.41-9.34v-28.8h11.45v6.28h7.41v9.21h-7.41v12.33c0,1.21,0.3,2.13,0.9,2.77c0.6,0.64,1.43,0.96,2.47,0.96
		c1.33,0,2.49-0.34,3.5-1.02L121.05,55.68z"/>
	<path class="st0" d="M229.92,55.34c-2.81-1.5-5.01-3.58-6.6-6.25c-1.59-2.67-2.38-5.69-2.38-9.07c0-3.33,0.79-6.34,2.38-9.01
		c1.59-2.67,3.78-4.74,6.57-6.22c2.79-1.48,5.96-2.22,9.49-2.22c3.54,0,6.71,0.74,9.52,2.22c2.81,1.48,5,3.54,6.57,6.19
		c1.57,2.65,2.35,5.66,2.35,9.04c0,3.38-0.78,6.4-2.35,9.07c-1.57,2.67-3.76,4.75-6.57,6.25c-2.81,1.5-5.99,2.25-9.52,2.25
		C235.88,57.59,232.73,56.84,229.92,55.34 M244.32,45.99c1.29-1.44,1.93-3.43,1.93-5.97c0-2.5-0.64-4.46-1.93-5.88
		c-1.29-1.42-2.93-2.13-4.94-2.13c-2.01,0-3.66,0.71-4.94,2.13c-1.29,1.42-1.93,3.38-1.93,5.88c0,2.54,0.64,4.53,1.93,5.97
		c1.29,1.44,2.93,2.16,4.94,2.16C241.39,48.15,243.03,47.43,244.32,45.99"/>
	<path class="st0" d="M285.21,55.34c-2.81-1.5-5.01-3.58-6.6-6.25c-1.59-2.67-2.38-5.69-2.38-9.07c0-3.33,0.79-6.34,2.38-9.01
		c1.59-2.67,3.78-4.74,6.57-6.22c2.79-1.48,5.96-2.22,9.49-2.22c3.54,0,6.71,0.74,9.52,2.22c2.81,1.48,5,3.54,6.57,6.19
		c1.57,2.65,2.35,5.66,2.35,9.04c0,3.38-0.78,6.4-2.35,9.07c-1.57,2.67-3.76,4.75-6.57,6.25c-2.81,1.5-5.99,2.25-9.52,2.25
		C291.17,57.59,288.02,56.84,285.21,55.34 M299.61,45.99c1.29-1.44,1.93-3.43,1.93-5.97c0-2.5-0.64-4.46-1.93-5.88
		c-1.29-1.42-2.93-2.13-4.94-2.13c-2.01,0-3.66,0.71-4.94,2.13c-1.29,1.42-1.93,3.38-1.93,5.88c0,2.54,0.64,4.53,1.93,5.97
		c1.29,1.44,2.93,2.16,4.94,2.16C296.68,48.15,298.32,47.43,299.61,45.99"/>
	<path class="st0" d="M24.06,56.64c0,1.26-2.9,2.28-6.47,2.28c-3.58,0-6.47-1.02-6.47-2.28l0-31.87c0-1.22,2.9-2.21,6.47-2.21
		c3.58,0,6.47,0.99,6.47,2.21L24.06,56.64z"/>
	<path class="st1" d="M24.06,24.77c0,1.22-2.9,2.21-6.47,2.21c-3.58,0-6.47-0.99-6.47-2.21c0-1.22,2.9-2.21,6.47-2.21
		C21.16,22.56,24.06,23.55,24.06,24.77"/>
	<path class="st2" d="M23.84,9.02c0,3.58-2.8,6.47-6.25,6.47c-3.45,0-6.25-2.9-6.25-6.47c0-3.58,2.8-6.47,6.25-6.47
		C21.04,2.54,23.84,5.44,23.84,9.02"/>
	<path class="st0" d="M61.74,39.36c0-9.29-7.53-16.81-16.81-16.81c-9.29,0-16.81,7.53-16.81,16.81l0,0.1v18.11h11.45V40.76
		c0-4.46,1.79-6.69,5.36-6.69h0c3.58,0,5.36,2.23,5.36,6.69v16.82h11.45V39.46L61.74,39.36z"/>
	<path class="st0" d="M121.62,40.61c0-9.99,8.1-18.08,18.08-18.08c9.99,0,18.08,8.1,18.08,18.08l0.01,1.68v15.3h-10.79v-3.75
		c-2.11,2.5-5.28,3.75-9.53,3.75c-2.94,0-5.61-0.69-8.02-2.06c-2.4-1.37-4.31-3.33-5.72-5.87c-1.41-2.54-2.12-5.48-2.12-8.82
		L121.62,40.61z M144.46,45.69c1.27-1.37,1.91-3.27,1.91-5.69c0-2.38-0.64-4.25-1.91-5.6c-1.27-1.35-2.9-2.03-4.89-2.03
		c-1.99,0-3.62,0.68-4.89,2.03c-1.27,1.35-1.91,3.22-1.91,5.6c0,2.42,0.64,4.32,1.91,5.69c1.27,1.37,2.9,2.06,4.89,2.06
		C141.56,47.74,143.19,47.06,144.46,45.69"/>
	<path class="st0" d="M218.16,39.35c0-9.29-7.53-16.81-16.81-16.81c-4.25,0-8.13,1.58-11.09,4.18c-2.96-2.6-6.84-4.18-11.09-4.18
		c-9.29,0-16.81,7.53-16.81,16.81l0,0.1v18.11h11.45V40.74c0-4.46,1.79-6.69,5.36-6.69c3.58,0,5.36,2.23,5.36,6.69v16.82h11.45h0
		V40.74c0-4.46,1.79-6.69,5.36-6.69c3.58,0,5.36,2.23,5.36,6.69v16.82h11.45V39.45L218.16,39.35z"/>
	<path class="st0" d="M272.73,58.24c0,3.16-0.67,5.73-2.02,7.73c-1.34,2-2.98,3.45-4.91,4.34c-1.93,0.89-3.77,1.33-5.53,1.33
		l-3.81-8.7c1.42-0.44,2.47-1.03,3.14-1.76c0.68-0.73,1.12-1.72,1.33-2.97c0.21-1.25,0.32-3.02,0.32-5.3V22.57h11.47V58.24z"/>
</g>
</svg>
