<?xml version="1.0" encoding="utf-8"?>
<!-- Generator: Adobe Illustrator 21.0.0, SVG Export Plug-In . SVG Version: 6.00 Build 0)  -->
<svg version="1.1" id="Layer_1" xmlns="http://www.w3.org/2000/svg" xmlns:xlink="http://www.w3.org/1999/xlink" x="0px" y="0px"
	 viewBox="0 0 160 36.1" style="enable-background:new 0 0 160 36.1;" xml:space="preserve">
<style type="text/css">
	.st0{fill:#31C8AC;}
</style>
<g>
	<path class="st0" d="M120.9,13.5c-4.7,0-6.6,2.3-6.6,5.9v9c0,0.8,0.2,1,1,1h0.3c0.8,0,1-0.2,1-1v-9c0-2.3,0.8-3.7,4.2-3.7
		c3.4,0,4.2,1.3,4.2,3.7v9c0,0.8,0.2,1,1,1h0.4c0.8,0,1-0.2,1-1v-9C127.5,15.7,125.7,13.5,120.9,13.5z"/>
	<path class="st0" d="M159.1,13.8h-0.3c-0.8,0-1.1,0.2-1.3,1l-2.6,10.9c-0.3,1.4-0.9,1.7-1.8,1.7c-1,0-1.5-0.3-1.9-1.7l-3-10.9
		c-0.2-0.8-0.5-1-1.4-1h-0.3c-0.8,0-1,0.2-0.8,1l3,11c0.6,2.2,1.3,3.7,3.5,3.7c0.6,0,1.2-0.1,1.6-0.3c-0.8,2.8-1.9,4.5-4.3,4.8
		c-0.8,0.1-1,0.2-0.8,0.9l0.1,0.3c0.2,0.8,0.4,0.9,1.1,0.9c3.4-0.2,5.3-2.7,6.3-6.7l3.6-14.6C160.1,14,160,13.8,159.1,13.8z"/>
	<path class="st0" d="M104.1,13.5c-5,0-6.9,2.5-6.9,6.6v2.9c0,4.2,1.9,6.6,6.9,6.6c4.9,0,6.9-2.5,6.9-6.6v-2.9
		C111,15.9,109.1,13.5,104.1,13.5z M108.6,23.1c0,2.8-0.9,4.4-4.5,4.4c-3.6,0-4.6-1.6-4.6-4.4v-2.9c0-2.9,0.9-4.4,4.6-4.4
		c3.6,0,4.5,1.5,4.5,4.4V23.1z"/>
	<path class="st0" d="M87.8,13.5c-2.6,0-4.1,1-4.8,2.6c-0.7-1.6-2.1-2.6-4.8-2.6c-4.3,0-6,2.3-6,5.9v9c0,0.8,0.2,1,1,1h0.3
		c0.8,0,1-0.2,1-1v-9c0-2.3,0.8-3.7,3.6-3.7c2.9,0,3.6,1.3,3.6,3.7v9c0,0.8,0.2,1,1,1h0.3c0.8,0,1-0.2,1-1v-9c0-2.3,0.7-3.7,3.7-3.7
		c2.9,0,3.6,1.3,3.6,3.7v9c0,0.8,0.2,1,1,1h0.3c0.8,0,1-0.2,1-1v-9C93.8,15.7,92.2,13.5,87.8,13.5z"/>
	<path class="st0" d="M137.5,13.5c-5,0-6.6,2.8-6.6,6.7v2.9c0,4.7,2.4,6.6,7.3,6.6c1.9,0,3.3-0.3,4.3-0.6c0.9-0.3,1-0.5,1-1.1v-0.3
		c0-0.8-0.2-1-1-0.8c-0.7,0.2-2.4,0.6-4.3,0.6c-3.4,0-4.9-1.1-4.9-4v-0.9h9.5c0.8,0,1-0.2,1.1-1c0.1-0.4,0.1-1.1,0.1-1.7
		C144,15.6,141.6,13.5,137.5,13.5z M141.7,20.5h-8.5v-1c0-2.8,1.6-3.9,4.2-3.9c2.6,0,4.2,1.1,4.2,3.9V20.5z"/>
	<path class="st0" d="M72.2,3.7c0-0.3-0.3-0.6-0.6-0.6l-3.2,0c-0.3,0-0.6,0.3-0.6,0.6l0,3.2c0,0.3,0.3,0.6,0.6,0.6l3.2,0
		c0.3,0,0.6-0.3,0.6-0.6L72.2,3.7z"/>
	<path class="st0" d="M65.1,0c-0.2,0-0.4,0.2-0.4,0.4l0,2.2c0,0.2,0.2,0.4,0.4,0.4l2.2,0c0.2,0,0.4-0.2,0.4-0.4l0-2.2
		c0-0.2-0.2-0.4-0.4-0.4L65.1,0"/>
	<path class="st0" d="M8.2,9H3.6C1.1,9,0,10.1,0,12.6v15.9c0,1,0.3,1.3,1.3,1.3h0.3c1,0,1.3-0.3,1.3-1.3v-6.2h5.4c4.8,0,7-2.1,7-6.7
		C15.2,11.1,13,9,8.2,9z M8.2,19.7H2.8V13c0-0.9,0.3-1.3,1.3-1.3h4.1c2.6,0,4.2,0.7,4.2,4C12.4,18.2,11.7,19.7,8.2,19.7z"/>
	<path class="st0" d="M21.2,13.6c-1.8,0-3,0.2-3.4,0.3c-0.8,0.2-1.1,0.4-1.1,1.3v0.3c0,0.3,0.1,0.6,0.2,0.8c0.1,0.2,0.3,0.3,0.6,0.3
		c0.1,0,0.3,0,0.5-0.1c0.4-0.1,1.9-0.3,3.4-0.3c2.8,0,3.9,0.8,3.9,2.7v1.7h-3.5c-4.5,0-6.6,1.5-6.6,4.8c0,3.2,2.2,4.9,6.1,4.9
		c4.7,0,6.8-1.6,6.8-5.2v-6.2C28,15.2,25.8,13.6,21.2,13.6z M25.3,24.8c0,1.8-0.7,2.8-4,2.8c-2.2,0-3.3-0.8-3.3-2.5
		c0-1.8,1.1-2.5,3.9-2.5h3.5V24.8z"/>
	<path class="st0" d="M42.5,14h-0.3c-0.9,0-1.3,0.3-1.5,1.2L38.1,26c-0.3,1.3-0.8,1.6-1.6,1.6c-1,0-1.3-0.2-1.7-1.6l-2.9-10.8
		c-0.2-0.9-0.6-1.2-1.5-1.2H30c-0.4,0-0.8,0-0.9,0.3c-0.2,0.3-0.1,0.6,0,1l3,10.9c0.6,2.1,1.2,3.8,3.7,3.8c0.5,0,0.9-0.1,1.2-0.2
		c-0.8,2.4-1.5,3.4-3.8,3.6c-0.5,0-0.8,0.1-0.9,0.3c-0.2,0.2-0.1,0.6-0.1,0.9l0.1,0.3c0.1,0.6,0.4,1,1.1,1c0.1,0,0.2,0,0.2,0
		c3.4-0.2,5.2-2,6.2-6.3l3.6-14.4c0.1-0.4,0.1-0.7-0.1-1C43.2,14.1,42.8,14,42.5,14z"/>
	<path class="st0" d="M66.9,7.5l-4.3,0h0c-0.5,0-0.8,0.4-0.8,0.8l0,0.6h-0.3c-1.9,0-2.7,0.3-2.7,2.1v4.1l0,0v0.9c0,0,0,0.1,0,0.1V22
		c0,0.7-0.1,1.3-0.4,1.7c-0.5,0.8-1.6,1.2-3.3,1.2c-1.7,0-2.7-0.4-3.3-1.2c-0.3-0.4-0.4-1-0.4-1.7v-5.8c0,0,0-0.1,0-0.1v-0.9l0,0
		v-4.1c0-1.8-0.7-2.1-2.7-2.1h-0.6c-1.9,0-2.7,0.3-2.7,2.1V22c0,1.8,0.4,3.3,1.2,4.5c1.5,2.3,4.4,3.6,8.4,3.6l0,0l0,0
		c4.1,0,7-1.2,8.4-3.6c0.8-1.2,1.2-2.7,1.2-4.5v-8.4l2.2,0h0c0.5,0,0.8-0.4,0.8-0.8l0-4.4C67.7,7.9,67.3,7.5,66.9,7.5z"/>
</g>
</svg>
